<?xml version="1.0" encoding="utf-8"?>
<!-- Generator: Adobe Illustrator 24.0.0, SVG Export Plug-In . SVG Version: 6.00 Build 0)  -->
<svg version="1.1" id="Layer_1" xmlns="http://www.w3.org/2000/svg" xmlns:xlink="http://www.w3.org/1999/xlink" x="0px" y="0px"
	 viewBox="0 0 760 200" style="enable-background:new 0 0 760 200;" xml:space="preserve">
<style type="text/css">
	.st0{display:none;}
	.st1{display:inline;fill:none;}
	.st2{display:inline;}
	.st3{fill:none;}
	.st4{fill:#282828;}
	.st5{fill-opacity:0;stroke:#006EFA;stroke-width:11.5626;stroke-linecap:round;stroke-miterlimit:2.88;}
	.st6{fill-opacity:0;stroke:#FFAA00;stroke-width:11.5626;stroke-linecap:round;stroke-miterlimit:2.88;}
	.st7{fill-opacity:0;stroke:#00A078;stroke-width:11.5626;stroke-linecap:round;stroke-miterlimit:2.88;}
	.st8{fill-opacity:0;stroke:#3CD2AF;stroke-width:11.5626;stroke-linecap:round;stroke-miterlimit:2.88;}
	.st9{fill-opacity:0;stroke:#FA374B;stroke-width:11.5626;stroke-linecap:round;stroke-miterlimit:2.88;}
	.st10{fill-opacity:0;stroke:#FFCD00;stroke-width:11.5626;stroke-linecap:round;stroke-miterlimit:2.88;}
	.st11{fill-opacity:0;stroke:#B4DC00;stroke-width:11.5626;stroke-linecap:round;stroke-miterlimit:2.88;}
	.st12{fill-opacity:0;stroke:#41BEFF;stroke-width:11.5626;stroke-linecap:round;stroke-miterlimit:2.88;}
	.st13{fill-opacity:0;stroke:#006EFA;stroke-width:14;stroke-linecap:round;stroke-miterlimit:2.88;}
	.st14{fill-opacity:0;stroke:#FFAA00;stroke-width:14;stroke-linecap:round;stroke-miterlimit:2.88;}
	.st15{fill-opacity:0;stroke:#00A078;stroke-width:14;stroke-linecap:round;stroke-miterlimit:2.88;}
	.st16{fill-opacity:0;stroke:#3CD2AF;stroke-width:14;stroke-linecap:round;stroke-miterlimit:2.88;}
	.st17{fill-opacity:0;stroke:#FA374B;stroke-width:14;stroke-linecap:round;stroke-miterlimit:2.88;}
	.st18{fill-opacity:0;stroke:#FFCD00;stroke-width:14;stroke-linecap:round;stroke-miterlimit:2.88;}
	.st19{fill-opacity:0;stroke:#B4DC00;stroke-width:14;stroke-linecap:round;stroke-miterlimit:2.88;}
	.st20{fill-opacity:0;stroke:#41BEFF;stroke-width:14;stroke-linecap:round;stroke-miterlimit:2.88;}
</style>
<g class="st0">
	<path class="st1" d="M-120,450"/>
</g>
<g class="st0">
	<path class="st1" d="M-120,450"/>
</g>
<g class="st0">
	<path class="st1" d="M-120,450"/>
</g>
<g class="st0">
	<path class="st1" d="M-120,450"/>
</g>
<g class="st0">
	<path class="st1" d="M-120,450"/>
</g>
<g class="st0">
	<path class="st1" d="M-120,450"/>
</g>
<g class="st0">
	<path class="st1" d="M-120,450"/>
</g>
<g class="st0">
	<g class="st2">
		<path class="st3" d="M-120,830"/>
	</g>
</g>
<g class="st0">
	<g class="st2">
		<path class="st3" d="M-120,830"/>
	</g>
</g>
<g class="st0">
	<path class="st1" d="M-120,830"/>
</g>
<g class="st0">
	<path class="st1" d="M-120,830"/>
</g>
<g class="st0">
	<path class="st1" d="M-120,830"/>
</g>
<g class="st0">
	<path class="st1" d="M-120,830"/>
</g>
<g class="st0">
	<path class="st1" d="M-120,830"/>
</g>
<g class="st0">
	<path class="st1" d="M-120,830"/>
</g>
<g class="st0">
	<path class="st1" d="M-120,830"/>
</g>
<g class="st0">
	<path class="st1" d="M-120,830"/>
</g>
<g>
	<path class="st4" d="M260.3,153.9h-12.7c-1.3,0-2.4-1.1-2.4-2.4V45.3c0-1.3,1.1-2.4,2.4-2.4h12.7c1.3,0,2.4,1.1,2.4,2.4l-0.1,62.6
		l26.5-30.7c0.5-0.5,1.1-0.8,1.8-0.8h14.1c2.1,0,3.2,2.5,1.8,4l-29.2,33.3l31.1,36.2c1.4,1.6,0.2,4-1.8,4h-14.4
		c-0.7,0-1.4-0.3-1.8-0.8l-28.2-32.2l0.1,30.6C262.7,152.8,261.6,153.9,260.3,153.9z"/>
	<path class="st4" d="M397.4,151.5V78.9c0-1.3-1.1-2.4-2.4-2.4h-12.4c-1.3,0-2.4,1.1-2.4,2.4v9.4l-0.9-1.3
		c-5.6-7.9-15.1-12.4-26.1-12.4c-21.2,0-37.7,17.8-37.7,40.6c0,22.8,16.6,40.6,37.7,40.6c10.6,0,20.4-4.9,26.1-13.1l0.9-1.3v10
		c0,1.3,1.1,2.4,2.4,2.4h12.4C396.3,153.9,397.4,152.8,397.4,151.5z M356.9,140c-13.5,0-24-10.9-24-24.8c0-13.9,10.5-24.8,24-24.8
		s24,10.9,24,24.8C380.9,129.1,370.4,140,356.9,140z"/>
	<path class="st4" d="M413,45.3v106.1c0,1.3,1.1,2.4,2.4,2.4h12.7c1.3,0,2.4-1.1,2.4-2.4V45.3c0-1.3-1.1-2.4-2.4-2.4h-12.7
		C414.1,42.9,413,44,413,45.3z"/>
	<path class="st4" d="M478,155.8c5.6,0,9.5-1,12.1-2c0.9-0.4,1.5-1.3,1.5-2.2v-10.1c0-1.6-1.6-2.8-3.1-2.3c-1.6,0.5-3.3,0.7-5,0.7
		c-8.6,0-12.6-4.1-12.6-13V91.2h18.4c1.3,0,2.4-1.1,2.4-2.4v-9.8c0-1.3-1.1-2.4-2.4-2.4h-18.4V60c0-1.3-1.1-2.4-2.4-2.4h-12.6
		c-1.3,0-2.4,1.1-2.4,2.4v16.5h-9.3c-1.3,0-2.4,1.1-2.4,2.4v9.8c0,1.3,1.1,2.4,2.4,2.4h9.3v39C453.4,146.2,462.6,155.8,478,155.8z"
		/>
	<path class="st4" d="M536.3,155.8c10,0,18.3-4.3,23.4-12.1l0.9-1.4v9.1c0,1.3,1.1,2.4,2.4,2.4h12.7c1.3,0,2.4-1.1,2.4-2.4V78.9
		c0-1.3-1.1-2.4-2.4-2.4H563c-1.3,0-2.4,1.1-2.4,2.4v38.4c0,13.6-7.3,22.4-18.7,22.4c-10.9,0-17.4-7.5-17.4-20V78.9
		c0-1.3-1.1-2.4-2.4-2.4h-12.7c-1.3,0-2.4,1.1-2.4,2.4v44.3C506.9,143.3,518.1,155.8,536.3,155.8z"/>
	<path class="st4" d="M634.8,92.6c0.6,0,1.2,0,1.7,0.1c1.4,0.1,2.6-1,2.6-2.4V77.3c0-1.3-1-2.4-2.3-2.4c-0.2,0-0.5,0-0.7,0
		c-10.1,0-19.1,5.8-22.9,14.7l-0.9,2.2v-13c0-1.3-1.1-2.4-2.4-2.4h-12.4c-1.3,0-2.4,1.1-2.4,2.4v72.5c0,1.3,1.1,2.4,2.4,2.4H610
		c1.3,0,2.4-1.1,2.4-2.4v-31.6C612.4,103.3,621.2,92.6,634.8,92.6z"/>
	<path class="st4" d="M725.4,151.5V78.9c0-1.3-1.1-2.4-2.4-2.4h-12.4c-1.3,0-2.4,1.1-2.4,2.4v9.4l-0.9-1.3
		c-5.6-7.9-15.1-12.4-26.1-12.4c-21.2,0-37.7,17.8-37.7,40.6c0,22.8,16.6,40.6,37.7,40.6c10.6,0,20.4-4.9,26.1-13.1l0.9-1.3v10
		c0,1.3,1.1,2.4,2.4,2.4H723C724.3,153.9,725.4,152.8,725.4,151.5z M684.9,140c-13.5,0-24-10.9-24-24.8c0-13.9,10.5-24.8,24-24.8
		s24,10.9,24,24.8C709,129.1,698.4,140,684.9,140z"/>
	<g transform="matrix(1,0,0,1,0,8.653846740722656)">
		<path class="st5" d="M112.9,134.1v35.1"/>
	</g>
	<g transform="matrix(1,0,0,1,-0.2294744998216629,6.816218376159668)">
		<path class="st6" d="M143.5,123.3l25.1,25.1"/>
	</g>
	<g transform="matrix(1,0,0,1,0.3578478693962097,7.123863697052002)">
		<path class="st7" d="M154.9,92.7h36.4"/>
	</g>
	<g transform="matrix(1,0,0,1,0.6066741347312927,1.830633521080017)">
		<path class="st8" d="M142.9,67.3l24.4-24.4"/>
	</g>
	<g transform="matrix(1,0,0,1,0,3.523688793182373)">
		<path class="st9" d="M112.6,53.1V18.6"/>
	</g>
	<g transform="matrix(1,0,0,1,-0.06132589280605316,8.590017318725586)">
		<path class="st10" d="M82.7,60.9L57.3,35.7"/>
	</g>
	<g transform="matrix(1,0,0,1,0,2.048513650894165)">
		<path class="st11" d="M70.1,97.8l-35.5,0.1"/>
	</g>
	<g transform="matrix(1,0,0,1,-3.2775213718414307,6.319284915924072)">
		<path class="st12" d="M86,123.5L60.6,149"/>
	</g>
	<g transform="matrix(1,0,0,1,0,-2)">
		<g transform="matrix(1,0,0,1,0,7.6529998779296875)">
			<path class="st13" d="M112.9,136.4v35.1"/>
		</g>
	</g>
	
		<g transform="matrix(0.7071067690849304,-0.7071067690849304,0.7071067690849304,0.7071067690849304,41.265167236328125,-294.3338623046875)">
		<g transform="matrix(1,0,0,1,-0.2460000067949295,5.784999847412109)">
			<path class="st14" d="M-227.7,365.7v35.5"/>
		</g>
	</g>
	<g transform="matrix(0,-1,1,0,-138.24998474121094,-530.6259765625)">
		<g transform="matrix(1,0,0,1,0.3470095992088318,6.0970001220703125)">
			<path class="st15" d="M-630.8,286.7v36.4"/>
		</g>
	</g>
	
		<g transform="matrix(-0.7071067690849304,-0.7071067690849304,0.7071067690849304,-0.7071067690849304,-428.4168395996094,-574.7521362304688)">
		<g transform="matrix(1,0,0,1,0.5990067720413208,0.8149999976158142)">
			<path class="st16" d="M-860.3-52.4l0,34.6"/>
		</g>
	</g>
	<g transform="matrix(-1,0,0,-1,-669.23095703125,-395.801025390625)">
		<g transform="matrix(1,0,0,1,0,2.4860000610351562)">
			<path class="st17" d="M-781.9-455.6v34.5"/>
		</g>
	</g>
	
		<g transform="matrix(-0.7071067690849304,0.7071067690849304,-0.7071067690849304,-0.7071067690849304,-708.6971435546875,-97.71914672851562)">
		<g transform="matrix(1,0,0,1,-0.0689932107925415,7.651000022888184)">
			<path class="st18" d="M-441.2-686.1l0.1,35.8"/>
		</g>
	</g>
	<g transform="matrix(0,1,-1,0,-530.1829833984375,137.86798095703125)">
		<g transform="matrix(1,0,0,1,0,1)">
			<path class="st19" d="M-38-602.1l0.1,35.5"/>
		</g>
	</g>
	
		<g transform="matrix(0.7071067690849304,0.7071067690849304,-0.7071067690849304,0.7071067690849304,-237.43817138671875,183.9591522216797)">
		<g transform="matrix(1,0,0,1,-3.226457357406616,5.115559101104736)">
			<path class="st20" d="M191.4-270.7l0.1,36"/>
		</g>
	</g>
	<path class="st4" d="M112.9,89.5c5.8,0,10.4,4.7,10.4,10.4c0,5.8-4.7,10.4-10.4,10.4c-5.8,0-10.4-4.7-10.4-10.4
		C102.5,94.1,107.2,89.5,112.9,89.5z"/>
</g>
</svg>
